<?xml version="1.0" encoding="UTF-8" standalone="no"?>
<!-- Created with Inkscape (http://www.inkscape.org/) -->

<svg
   xmlns:dc="http://purl.org/dc/elements/1.1/"
   xmlns:cc="http://creativecommons.org/ns#"
   xmlns:rdf="http://www.w3.org/1999/02/22-rdf-syntax-ns#"
   xmlns:svg="http://www.w3.org/2000/svg"
   xmlns="http://www.w3.org/2000/svg"
   xmlns:sodipodi="http://sodipodi.sourceforge.net/DTD/sodipodi-0.dtd"
   xmlns:inkscape="http://www.inkscape.org/namespaces/inkscape"
   width="250"
   height="10"
   viewBox="0 0 66.14583 2.6458334"
   version="1.1"
   id="svg8"
   inkscape:version="0.92.2 5c3e80d, 2017-08-06"
   sodipodi:docname="drawing.svg">
  <defs
     id="defs2" />
  <sodipodi:namedview
     id="base"
     pagecolor="#ffffff"
     bordercolor="#666666"
     borderopacity="1.0"
     inkscape:pageopacity="0.0"
     inkscape:pageshadow="2"
     inkscape:zoom="4.543885"
     inkscape:cx="124.49924"
     inkscape:cy="11.76858"
     inkscape:document-units="px"
     inkscape:current-layer="layer1"
     showgrid="false"
     inkscape:window-width="1643"
     inkscape:window-height="1005"
     inkscape:window-x="37"
     inkscape:window-y="1"
     inkscape:window-maximized="1"
     units="px"
     fit-margin-top="-10.3"
     inkscape:snap-intersection-paths="true" />
  <metadata
     id="metadata5">
    <rdf:RDF>
      <cc:Work
         rdf:about="">
        <dc:format>image/svg+xml</dc:format>
        <dc:type
           rdf:resource="http://purl.org/dc/dcmitype/StillImage" />
        <dc:title></dc:title>
      </cc:Work>
    </rdf:RDF>
  </metadata>
  <g
     inkscape:label="Layer 1"
     inkscape:groupmode="layer"
     id="layer1"
     transform="translate(0,-294.35414)">
    <path
       style="fill:#000000;fill-opacity:0;stroke-width:0.26458332"
       id="path919"
       d="m 0.24360892,293.83976 c 0.3493206,0.0115 0.69888818,0.0145 1.04835858,0.0184 0.9143124,0.009 1.8286863,0.0129 2.7430362,0.009 0.781158,-0.001 1.5622966,-0.005 2.3434302,-0.0107 0.4078711,-0.002 0.8153238,0.0186 1.2206676,0.063 0.1978099,0.0222 0.3927142,0.0648 0.5855235,0.11343 0.1210696,0.0371 0.2446618,0.0636 0.3670051,0.0958 0.103378,0.0287 0.2069907,0.0564 0.31037,0.085 0.074153,0.0197 0.1484413,0.0386 0.2231329,0.0561 0.051907,0.0123 0.1051068,0.0157 0.1582309,0.0173 0.0267,7.4e-4 0.05339,-1.2e-4 0.080083,-4.5e-4 0.00254,-5e-5 0.00507,-10e-5 0.00761,-1.6e-4 0,0 -0.2250717,0.1638 -0.2250717,0.1638 v 0 c -0.00249,-1e-5 -0.00496,-2e-5 -0.00744,-3e-5 -0.026151,0 -0.052334,-9.5e-4 -0.078434,-0.002 -0.053805,-0.003 -0.107504,-0.009 -0.1597414,-0.0227 -0.073953,-0.0185 -0.1476214,-0.038 -0.2210052,-0.0587 -0.1025977,-0.029 -0.2053526,-0.0575 -0.3081139,-0.086 -0.1218779,-0.0316 -0.2444803,-0.06 -0.3648921,-0.0972 -0.1880571,-0.0497 -0.377539,-0.0961 -0.5710092,-0.11932 -0.3957545,-0.0498 -0.7939884,-0.0757 -1.1929237,-0.0796 -0.7712715,-0.006 -1.5425483,-0.01 -2.3138453,-0.0107 -0.9229785,-0.004 -1.84598,6.6e-4 -2.7689225,0.009 -0.36640061,0.004 -0.73287948,0.007 -1.09914601,0.0185 0,0 0.22309786,-0.16209 0.22309786,-0.16209 z"
       inkscape:connector-curvature="0" />
    <path
       style="fill:#000000;fill-opacity:0;stroke-width:0.26458332"
       id="path921"
       d="m 3.1134378,298.55515 c -0.1914859,-0.006 -0.3831178,-0.006 -0.5746798,-0.007 -0.1944373,2.9e-4 -0.3888685,0.002 -0.5832887,0.004 -0.017132,2.4e-4 -0.034264,5e-4 -0.051395,7.4e-4 0,0 0.2180233,-0.15841 0.2180233,-0.15841 v 0 c 0.016456,2.5e-4 0.032911,5.1e-4 0.049367,7.4e-4 0.1904665,0.003 0.3809448,0.004 0.5714291,0.004 0.1977599,-7.1e-4 0.395578,-0.001 0.5932683,-0.007 0,0 -0.2227238,0.16182 -0.2227238,0.16182 z"
       inkscape:connector-curvature="0" />
    <path
       style="fill:#000000;fill-opacity:0;stroke-width:0.26458332"
       id="path923"
       d="m 4.0123424,298.20313 c 0.31071,-0.003 0.6215314,6e-4 0.9322615,0.002 0.130366,7.5e-4 0.5521068,0.002 0.6700393,0.006 0.2014207,0.006 0.5644306,0.0281 0.7663204,0.0415 0.124737,0.008 0.2495222,0.016 0.3740848,0.0266 0.1218229,0.0103 0.2433344,0.024 0.3650015,0.0361 0.5115104,0.055 1.023652,0.10704 1.5340036,0.17218 0.1324811,0.0143 0.2634922,0.0395 0.3958799,0.0541 0,0 -0.2224053,0.15675 -0.2224053,0.15675 v 0 c -0.125307,-0.0227 -0.249676,-0.0506 -0.3759229,-0.0682 -0.4971489,-0.0799 -0.9973723,-0.14239 -1.4979031,-0.19655 -0.5001003,-0.0505 -1.0024988,-0.093 -1.5053651,-0.10174 -0.1209368,-0.002 -0.2419115,1.7e-4 -0.3628636,9.6e-4 -0.1071089,7.1e-4 -0.2142091,0.002 -0.3213137,0.004 -0.3242988,0.005 -0.6497447,0.004 -0.9730872,0.031 0,0 0.2212699,-0.16454 0.2212699,-0.16454 z"
       inkscape:connector-curvature="0" />
    <path
       style="fill:#000000;fill-opacity:0;stroke-width:0.26458332"
       id="path925"
       d="m 4.8368119,295.99066 c 0.011115,0.0213 0.021325,0.0431 0.033343,0.0639 0.021413,0.0371 0.1379313,0.22269 0.1495476,0.24079 0.1265806,0.19719 0.2607143,0.38861 0.3960701,0.57982 0.1326211,0.18591 0.2702748,0.36803 0.4078962,0.55022 0.098071,0.12983 0.1922206,0.2551 0.297175,0.37945 0.026268,0.0292 0.052535,0.0584 0.078803,0.0876 0,0 -0.2187451,0.13202 -0.2187451,0.13202 v 0 c -0.025453,-0.03 -0.050907,-0.0601 -0.076361,-0.0902 -0.098541,-0.12695 -0.1907386,-0.25767 -0.2844956,-0.38819 -0.1331002,-0.18528 -0.2682716,-0.36909 -0.4004244,-0.55506 -0.2090256,-0.28638 -0.4148068,-0.57527 -0.619724,-0.86456 0,0 0.2369151,-0.13585 0.2369151,-0.13585 z"
       inkscape:connector-curvature="0" />
    <path
       style="opacity:0.9;fill:#000000;fill-opacity:0;stroke:none;stroke-width:0.07053211;stroke-miterlimit:4;stroke-dasharray:none;stroke-opacity:1"
       d="m 21.682301,37.682655 c -0.05819,-0.03695 -0.343844,-0.06473 -0.634789,-0.06173 -0.603465,0.0062 -1.007098,-0.05576 -1.287525,-0.197719 -0.106852,-0.05409 -0.408377,-0.129367 -0.670055,-0.167283 -0.887296,-0.128564 -0.969058,-0.145293 -1.53376,-0.313811 -0.310341,-0.09261 -0.691215,-0.199351 -0.846385,-0.237198 -0.155171,-0.03785 -0.495184,-0.150045 -0.755585,-0.249329 -0.260401,-0.09928 -0.857177,-0.245986 -1.32617,-0.326004 -0.579925,-0.09895 -1.351915,-0.313979 -2.413171,-0.672176 -0.858251,-0.289679 -1.649421,-0.526689 -1.758156,-0.526689 -0.108735,0 -0.5098045,-0.125834 -0.8912651,-0.27963 C 9.1839793,34.497288 8.5485363,34.28371 8.1533444,34.176466 7.7581526,34.069223 7.4348137,33.958295 7.4348137,33.929959 c 0,-0.130905 0.4396052,-0.448786 0.9645867,-0.697497 0.317163,-0.150257 0.5970536,-0.306191 0.6219791,-0.346521 0.024925,-0.04033 0.153272,-0.118434 0.2852147,-0.173563 0.1319427,-0.05513 0.3551224,-0.215461 0.4959549,-0.356294 0.1408326,-0.140833 0.2718119,-0.240307 0.2910649,-0.221053 0.03191,0.03191 0.731121,-0.23032 1.025546,-0.384612 0.06736,-0.0353 0.18451,-0.06418 0.260332,-0.06418 0.07582,0 0.156233,-0.02973 0.17869,-0.06607 0.06423,-0.103933 0.467482,-0.286595 0.632692,-0.286595 0.08239,0 0.214294,-0.04517 0.293119,-0.100385 0.07883,-0.05521 0.341436,-0.151722 0.583579,-0.214467 0.242143,-0.06275 0.54178,-0.158044 0.665861,-0.211775 0.359073,-0.155489 0.909768,-0.320356 1.177785,-0.352604 0.135774,-0.01634 0.364866,-0.07911 0.509092,-0.139493 0.144227,-0.06038 0.432056,-0.10979 0.639621,-0.10979 0.207564,0 0.545683,-0.04998 0.751375,-0.111062 0.664365,-0.197295 5.780434,-0.06932 7.163288,0.179179 0.193964,0.03486 0.654186,0.114432 1.022716,0.176836 0.36853,0.0624 0.908101,0.191033 1.199046,0.285842 0.290945,0.09481 0.671818,0.193955 0.846385,0.220325 0.174567,0.02637 0.579003,0.168117 0.898747,0.314992 0.319744,0.146875 0.795836,0.345387 1.057982,0.441137 0.679451,0.248174 2.555534,1.16135 2.791968,1.358979 0.109655,0.09166 0.230805,0.166653 0.269219,0.166653 0.09496,0 0.892416,0.707214 0.941405,0.834878 0.05255,0.136936 -0.277463,0.470921 -0.669412,0.677475 -0.174567,0.092 -0.412613,0.268349 -0.528991,0.391897 -0.116378,0.123548 -0.335073,0.288122 -0.485989,0.365719 -0.150915,0.0776 -0.357222,0.227503 -0.458459,0.333122 -0.101236,0.105619 -0.414664,0.280265 -0.696505,0.388101 -0.281841,0.107837 -0.541764,0.25086 -0.577604,0.31783 -0.06484,0.121159 -0.186999,0.180999 -1.061186,0.519833 -0.252153,0.09774 -0.712375,0.291499 -1.022716,0.430588 l -0.564257,0.25289 -2.574422,-2.12e-4 c -1.509262,-1.41e-4 -2.618196,-0.02802 -2.68022,-0.0674 z"
       id="path957"
       inkscape:connector-curvature="0"
       transform="matrix(0.26458333,0,0,0.26458333,0,290.38539)" />
    <path
       style="opacity:0.9;fill:#000000;fill-opacity:0;stroke:none;stroke-width:0.07053211;stroke-miterlimit:4;stroke-dasharray:none;stroke-opacity:1"
       d="m 21.682301,37.682655 c -0.05819,-0.03695 -0.343844,-0.06473 -0.634789,-0.06173 -0.603465,0.0062 -1.007098,-0.05576 -1.287525,-0.197719 -0.106852,-0.05409 -0.408377,-0.129367 -0.670055,-0.167283 -0.887296,-0.128564 -0.969058,-0.145293 -1.53376,-0.313811 -0.310341,-0.09261 -0.691215,-0.199351 -0.846385,-0.237198 -0.155171,-0.03785 -0.495184,-0.150045 -0.755585,-0.249329 -0.260401,-0.09928 -0.857177,-0.245986 -1.32617,-0.326004 -0.579925,-0.09895 -1.351915,-0.313979 -2.413171,-0.672176 -0.858251,-0.289679 -1.649421,-0.526689 -1.758156,-0.526689 -0.108735,0 -0.5098045,-0.125834 -0.8912651,-0.27963 C 9.1839793,34.497288 8.5485363,34.28371 8.1533444,34.176466 7.7581526,34.069223 7.4348137,33.958295 7.4348137,33.929959 c 0,-0.130905 0.4396052,-0.448786 0.9645867,-0.697497 0.317163,-0.150257 0.5970536,-0.306191 0.6219791,-0.346521 0.024925,-0.04033 0.153272,-0.118434 0.2852147,-0.173563 0.1319427,-0.05513 0.3551224,-0.215461 0.4959549,-0.356294 0.1408326,-0.140833 0.2718119,-0.240307 0.2910649,-0.221053 0.03191,0.03191 0.731121,-0.23032 1.025546,-0.384612 0.06736,-0.0353 0.18451,-0.06418 0.260332,-0.06418 0.07582,0 0.156233,-0.02973 0.17869,-0.06607 0.06423,-0.103933 0.467482,-0.286595 0.632692,-0.286595 0.08239,0 0.214294,-0.04517 0.293119,-0.100385 0.07883,-0.05521 0.341436,-0.151722 0.583579,-0.214467 0.242143,-0.06275 0.54178,-0.158044 0.665861,-0.211775 0.359073,-0.155489 0.909768,-0.320356 1.177785,-0.352604 0.135774,-0.01634 0.364866,-0.07911 0.509092,-0.139493 0.144227,-0.06038 0.432056,-0.10979 0.639621,-0.10979 0.207564,0 0.545683,-0.04998 0.751375,-0.111062 0.664365,-0.197295 5.780434,-0.06932 7.163288,0.179179 0.193964,0.03486 0.654186,0.114432 1.022716,0.176836 0.36853,0.0624 0.908101,0.191033 1.199046,0.285842 0.290945,0.09481 0.671818,0.193955 0.846385,0.220325 0.174567,0.02637 0.579003,0.168117 0.898747,0.314992 0.319744,0.146875 0.795836,0.345387 1.057982,0.441137 0.679451,0.248174 2.555534,1.16135 2.791968,1.358979 0.109655,0.09166 0.230805,0.166653 0.269219,0.166653 0.09496,0 0.892416,0.707214 0.941405,0.834878 0.05255,0.136936 -0.277463,0.470921 -0.669412,0.677475 -0.174567,0.092 -0.412613,0.268349 -0.528991,0.391897 -0.116378,0.123548 -0.335073,0.288122 -0.485989,0.365719 -0.150915,0.0776 -0.357222,0.227503 -0.458459,0.333122 -0.101236,0.105619 -0.414664,0.280265 -0.696505,0.388101 -0.281841,0.107837 -0.541764,0.25086 -0.577604,0.31783 -0.06484,0.121159 -0.186999,0.180999 -1.061186,0.519833 -0.252153,0.09774 -0.712375,0.291499 -1.022716,0.430588 l -0.564257,0.25289 -2.574422,-2.12e-4 c -1.509262,-1.41e-4 -2.618196,-0.02802 -2.68022,-0.0674 z"
       id="path959"
       inkscape:connector-curvature="0"
       transform="matrix(0.26458333,0,0,0.26458333,0,290.38539)" />
    <path
       sodipodi:type="star"
       style="opacity:0.9;fill:#3a7881;fill-opacity:1;stroke:none;stroke-width:0.26458332;stroke-miterlimit:4;stroke-dasharray:none;stroke-opacity:1"
       id="path969"
       sodipodi:sides="3"
       sodipodi:cx="8.9202557"
       sodipodi:cy="298.3063"
       sodipodi:r1="9.4939795"
       sodipodi:r2="3.3644185"
       sodipodi:arg1="0.84937758"
       sodipodi:arg2="1.9227762"
       inkscape:flatsided="false"
       inkscape:rounded="0"
       inkscape:randomized="0"
       d="m 15.19056,305.43504 -7.4302111,-3.97058 -8.14891497,-1.29228 7.15373467,-4.44946 5.1936044,-6.41103 0.276476,8.42005 z"
       inkscape:transform-center-x="-0.98917024"
       inkscape:transform-center-y="-0.58373337"
       transform="matrix(3.8867427,-0.06389416,1.1185148,0.18769513,-334.51567,240.81168)" />
    <path
       sodipodi:type="star"
       style="opacity:0.9;fill:#000000;fill-opacity:0;stroke:none;stroke-width:0.26458332;stroke-miterlimit:4;stroke-dasharray:none;stroke-opacity:1"
       id="path967"
       sodipodi:sides="3"
       sodipodi:cx="15.638439"
       sodipodi:cy="292.1666"
       sodipodi:r1="4.8134685"
       sodipodi:r2="2.4067342"
       sodipodi:arg1="0.38554593"
       sodipodi:arg2="1.4327435"
       inkscape:flatsided="false"
       inkscape:rounded="0"
       inkscape:randomized="0"
       d="m 20.098567,293.97677 -4.128926,0.57366 -4.128925,0.57366 1.567659,-3.86258 1.56766,-3.86259 2.561266,3.28893 z"
       inkscape:transform-center-x="-0.33120214"
       inkscape:transform-center-y="-0.90508867" />
  </g>
</svg>
